<svg width="33" height="21" viewBox="0 0 33 21" fill="none" xmlns="http://www.w3.org/2000/svg">
<path d="M22.7132 0C20.4583 0 18.2821 0.737085 16.5001 2.08944C14.7179 0.737021 12.5417 0 10.2868 0C4.61465 0 0 4.61459 0 10.2867C0 15.9589 4.61465 20.5734 10.2868 20.5734C12.5417 20.5734 14.7179 19.8364 16.5001 18.4841C18.2821 19.8364 20.4582 20.5734 22.7132 20.5734C28.3853 20.5734 33 15.9589 33 10.2867C33 4.61459 28.3853 0 22.7132 0ZM16.5 4.70624C16.8186 5.06138 17.1069 5.44352 17.3608 5.84687H15.6392C15.893 5.44358 16.1813 5.06131 16.5 4.70624ZM14.7433 7.78046H18.2567C18.4146 8.2821 18.5241 8.79643 18.5843 9.31992H14.4156C14.4759 8.7965 14.5854 8.28216 14.7433 7.78046ZM14.4156 11.2535H18.5843C18.5241 11.7769 18.4146 12.2913 18.2567 12.793H14.7433C14.5854 12.2913 14.4759 11.7769 14.4156 11.2535ZM16.5001 15.8673C16.1814 15.5121 15.8931 15.1299 15.6392 14.7266H17.3608C17.1069 15.1299 16.8187 15.5121 16.5001 15.8673ZM22.7132 18.6398C20.999 18.6398 19.3409 18.1158 17.9491 17.1481C18.7466 16.2564 19.3896 15.2262 19.8342 14.1203C20.3246 12.9003 20.5734 11.6105 20.5734 10.2867C20.5734 8.96298 20.3247 7.67314 19.8342 6.45305C19.3897 5.34729 18.7466 4.31707 17.9491 3.4253C19.3409 2.4576 20.999 1.93353 22.7132 1.93353C27.3192 1.93359 31.0664 5.68077 31.0664 10.2867C31.0664 14.8927 27.3192 18.6398 22.7132 18.6398Z" fill="#FF8816"/>
</svg>
