<svg width="50" height="16" viewBox="0 0 50 16" fill="none" xmlns="http://www.w3.org/2000/svg">
<path d="M20.0203 0.266213L17.4792 15.7675H21.5433L24.0864 0.266213H20.0203Z" fill="#FF8816"/>
<path d="M14.0716 0.283599L10.0911 10.855L9.66677 9.25881C8.88176 7.33555 6.65322 4.57345 4.03688 2.83273L7.67655 15.7599L11.9768 15.7523L18.3771 0.280339L14.0716 0.283599Z" fill="#FF8816"/>
<path d="M8.12393 1.393C7.8877 0.44876 7.20304 0.167334 6.35322 0.133649H0.0522641L0 0.442241C4.90342 1.67878 8.14797 4.6582 9.49429 8.24068L8.12393 1.393Z" fill="#FF8816"/>
<path d="M32.3232 3.23803C33.6528 3.2163 34.6166 3.51837 35.365 3.83131L35.7319 4.01059L36.2817 0.650865C35.4769 0.336841 34.2152 0 32.641 0C28.625 0 25.7944 2.10255 25.7725 5.11565C25.7463 7.34207 27.7888 8.58513 29.3316 9.32727C30.9153 10.0879 31.4463 10.5714 31.4389 11.2505C31.4264 12.2882 30.1762 12.7641 29.0087 12.7641C27.3812 12.7641 26.5167 12.5305 25.1819 11.9525L24.6582 11.7047L24.0864 15.1742C25.0376 15.6077 26.7927 15.9804 28.6146 16C32.8867 16 35.6629 13.9224 35.6922 10.7029C35.71 8.94153 34.626 7.59742 32.2773 6.49453C30.8557 5.77521 29.986 5.29711 29.9944 4.57127C29.9944 3.92693 30.7323 3.23803 32.3232 3.23803Z" fill="#FF8816"/>
<path d="M46.7115 0.283599H43.5715C42.5963 0.283599 41.8708 0.559592 41.4423 1.57012L35.4079 15.7762H39.6758C39.6758 15.7762 40.3719 13.8659 40.5297 13.4476C40.997 13.4476 45.1436 13.4541 45.7342 13.4541C45.8555 13.9952 46.2297 15.7762 46.2297 15.7762H50L46.7115 0.283599ZM41.6994 10.2748C42.0339 9.38486 43.3186 5.94255 43.3186 5.94255C43.2966 5.98492 43.6499 5.04611 43.86 4.46261L44.1339 5.79912C44.1339 5.79912 44.9126 9.50003 45.0757 10.2748H41.6994Z" fill="#FF8816"/>
</svg>
