<svg width="57" height="16" viewBox="0 0 57 16" fill="none" xmlns="http://www.w3.org/2000/svg">
<path fill-rule="evenodd" clip-rule="evenodd" d="M40.7716 7.22843V16H45.6447V10.802H51.1675C53.4919 10.7848 55.4665 9.29996 56.211 7.22843H40.7716Z" fill="#FF8816"/>
<path fill-rule="evenodd" clip-rule="evenodd" d="M40.1218 0C40.4057 3.58533 43.7976 6.41624 47.9402 6.41624C47.9537 6.41624 56.4135 6.41624 56.4135 6.41624C56.476 6.08742 56.5087 5.74804 56.5087 5.40102C56.5087 2.43101 54.1125 0.0219715 51.1483 0.000149436L40.1218 0Z" fill="#FF8816"/>
<path fill-rule="evenodd" clip-rule="evenodd" d="M32.9096 6.33093L32.9134 6.32274C32.9634 6.2331 33.0596 6.17259 33.1695 6.17259C33.3283 6.17259 33.4575 6.29911 33.4618 6.45683L33.4619 15.9188H38.335V0H33.4619C32.844 0.0205686 32.1458 0.474038 31.8862 1.03068L28.0082 9.34718C27.9986 9.38118 27.9836 9.41291 27.9642 9.4414L27.9629 9.44418C27.9043 9.52863 27.8061 9.58376 27.6954 9.58376C27.516 9.58376 27.3706 9.43831 27.3706 9.25888V0H22.4975V15.9188H27.3706V15.917C27.9818 15.885 28.6635 15.4367 28.9194 14.8881L32.8996 6.35237C32.9027 6.34507 32.906 6.33791 32.9096 6.33093Z" fill="#FF8816"/>
<path fill-rule="evenodd" clip-rule="evenodd" d="M14.713 6.60304L11.8648 15.9188H8.35925L5.50941 6.59738C5.48193 6.44811 5.35112 6.33503 5.19391 6.33503C5.01673 6.33503 4.8731 6.47866 4.8731 6.65584C4.8731 6.65719 4.8731 6.65854 4.87312 6.65989L4.8731 15.9188H0V0H5.42844C6.32511 0 7.26475 0.695863 7.52678 1.55292L9.89839 9.31011C10.0164 9.69606 10.2078 9.69565 10.3257 9.31011L12.6973 1.55292C12.9595 0.695264 13.8989 0 14.7956 0H20.2234V15.9188H15.3503V6.6599C15.3502 6.65854 15.3503 6.65719 15.3503 6.65584C15.3503 6.47866 15.2066 6.33503 15.0294 6.33503C14.8702 6.33503 14.7381 6.45098 14.713 6.60304Z" fill="#FF8816"/>
</svg>
