<svg width="25" height="24" viewBox="0 0 25 24" fill="none" xmlns="http://www.w3.org/2000/svg">
<path d="M22.9252 4.66403C22.6533 4.29266 22.3842 3.92129 22.1474 3.547L7.60848 11.8984L0.590508 7.87475C0.429436 8.30891 0.330977 8.7638 0.298092 9.22571L7.67574 13.4979L22.9252 4.66403Z" fill="#FF8816"/>
<path d="M7.60848 15.0419L0.0700088 10.7141C0.014224 10.9803 -0.00836646 11.2524 0.00275333 11.5241C0.00275333 14.8329 1.31718 18.0062 3.65686 20.3459C5.99655 22.6856 9.16984 24 12.4787 24C15.7875 24 18.9608 22.6856 21.3005 20.3459C23.6402 18.0062 24.9546 14.8329 24.9546 11.5241C24.9686 9.54997 24.5051 7.60173 23.6036 5.84539L7.60848 15.0419Z" fill="#FF8816"/>
<path d="M21.1327 2.50015C20.7774 2.16479 20.4045 1.84853 20.0157 1.55273L7.60848 8.75492L1.62566 5.33951C1.42389 5.71087 1.2192 6.11733 0.982345 6.55596L7.54122 10.3427L21.1327 2.50015Z" fill="#FF8816"/>
<path d="M18.7992 0.742736C18.3296 0.461622 17.8411 0.213446 17.3371 0L7.60848 5.60268L3.24856 3.14347C2.95615 3.43588 2.66373 3.81895 2.37132 4.19031L7.57631 7.1671L18.7992 0.742736Z" fill="#FF8816"/>
</svg>
